# xmcd
#
# Track frame offsets:
#	150
#	13795
#	26121
#	37822
#	51162
#	64172
#	77218
#	88766
#	101536
#	114532
#	128624
#	142168
#	157093
#	170138
#	183819
#	198072
#	210316
#	223856
#
# Disc length: 3164 seconds
#
# Revision: 1
# Processed by: cddbd v1.5.2PL0 Copyright (c) Steve Scherf et al.
# Submitted via: EZCDAudioConverter 4.0.9.1
#
DISCID=fd0c5a12
DTITLE=Orquesta Aragon - Orquesta Aragon Gold
DYEAR=2015
DGENRE=Cubana
TTITLE0=Quiereme Siempre
TTITLE1=No Quiero Lios
TTITLE2=Chachacha De Las Doce
TTITLE3=Yo No Bailo Con Juana
TTITLE4=Caminito De Guarena
TTITLE5=Bella Muñequita
TTITLE6=Aladino
TTITLE7=¡Oye! Me Voy Para La Luna
TTITLE8=Almendra
TTITLE9=Alma Impura
TTITLE10=Le Dije A Una Rosa
TTITLE11=El Cadete Institucional
TTITLE12=Salsita Y Cariño
TTITLE13=Tres Lindas Cubanas
TTITLE14=Ah¡ Que Familia Señor
TTITLE15=Tiembla La Tierra
TTITLE16=El Baile Del Suavecito
TTITLE17=Inutil Sacrificio
EXTD=
EXTT0=
EXTT1=
EXTT2=
EXTT3=
EXTT4=
EXTT5=
EXTT6=
EXTT7=
EXTT8=
EXTT9=
EXTT10=
EXTT11=
EXTT12=
EXTT13=
EXTT14=
EXTT15=
EXTT16=
EXTT17=
PLAYORDER=
